<?xml version="1.0" encoding="utf-8"?>
<svg version="1.1" id="Layer_1" x="0px" y="0px" viewBox="0 0 512 512" style="enable-background:new 0 0 512 512;" xmlns="http://www.w3.org/2000/svg">
  <g transform="matrix(1, 0, 0, 1, -91.132683, -22.368933)">
    <g>
      <path d="M172.522,244.87V512h333.913V244.87H172.522z M356.174,390.653v49h-33.391v-49c-9.977-5.774-16.696-16.555-16.696-28.914 c0-18.442,14.949-33.391,33.391-33.391s33.391,14.949,33.391,33.391C372.87,374.096,366.151,384.878,356.174,390.653z"/>
    </g>
  </g>
  <g transform="matrix(1, 0, 0, 1, 106.873787, -22.368933)">
    <g>
      <path d="M 140.787 35.625 C 67.022 35.625 7.222 95.424 7.222 169.19 C 7.222 242.956 7.222 247.103 7.222 247.103 L 74.005 247.103 L 74.005 169.19 C 74.005 132.366 103.964 102.407 140.788 102.407 C 177.612 102.407 207.571 132.366 207.571 169.19 L 207.571 247.103 L 274.354 247.103 C 274.354 247.103 274.354 242.956 274.354 169.19 C 274.354 95.424 214.553 35.625 140.787 35.625 Z"/>
    </g>
  </g>
  <g/>
  <g/>
  <g/>
  <g/>
  <g/>
  <g/>
  <g/>
  <g/>
  <g/>
  <g/>
  <g/>
  <g/>
  <g/>
  <g/>
  <g/>
</svg>