<?xml version="1.0" encoding="utf-8"?>
<svg version="1.1" id="Capa_1" x="0px" y="0px" width="254.83px" height="254.831px" viewBox="0 0 254.83 254.831" style="enable-background:new 0 0 254.83 254.831;" xmlns="http://www.w3.org/2000/svg">
  <g>
    <path d="M224.774,178.355V42.865V13.753V0L79.044,52.499v8.223v35.325v99.319c-4.5-2.004-9.528-3.159-14.867-3.159 c-18.84,0-34.121,14.018-34.121,31.312s15.281,31.312,34.121,31.312c18.191,0,33.013-13.059,34.036-29.51h0.101V89.015 l107.192-39.116v98.496c-4.51-1.999-9.532-3.159-14.871-3.159c-18.833,0-34.119,14.022-34.119,31.317 c0,17.29,15.286,31.307,34.119,31.307c18.196,0,33.016-13.059,34.041-29.505H224.774z" style="paint-order: fill; fill: rgb(114, 90, 193);"/>
  </g>
  <g/>
  <g/>
  <g/>
  <g/>
  <g/>
  <g/>
  <g/>
  <g/>
  <g/>
  <g/>
  <g/>
  <g/>
  <g/>
  <g/>
  <g/>
  <ellipse style="stroke: rgb(114, 90, 193); paint-order: fill; fill: rgb(114, 90, 193);" cx="144.955" cy="101.591" rx="15.332" ry="15.177"/>
  <rect x="136.747" y="102.83" width="17.035" height="37.477" style="stroke: rgb(114, 90, 193); fill: rgb(114, 90, 193);"/>
</svg>